<svg xmlns="http://www.w3.org/2000/svg" xmlns:svg="http://www.w3.org/2000/svg" xmlns:xlink="http://www.w3.org/1999/xlink" id="svg2" width="48" height="48" version="1.0"><metadata id="metadata7"/><defs id="defs5"><linearGradient id="linearGradient3721"><stop style="stop-color:#b3b3b3;stop-opacity:1" id="stop3723" offset="0"/><stop style="stop-color:#f9f9f9;stop-opacity:1" id="stop3725" offset="1"/></linearGradient><linearGradient id="linearGradient3686"><stop style="stop-color:#fff;stop-opacity:1" id="stop3688" offset="0"/><stop style="stop-color:#fff;stop-opacity:0" id="stop3690" offset="1"/></linearGradient><linearGradient id="linearGradient3692" x1="20.951" x2="71.356" y1="12.615" y2="81.846" gradientTransform="matrix(0.37952237,0,0,0.3999496,-0.29091718,-2.1049819)" gradientUnits="userSpaceOnUse" xlink:href="#linearGradient3686"/><linearGradient id="linearGradient3727" x1="59.211" x2="61.184" y1="129.822" y2="10.49" gradientTransform="matrix(0.37840616,0,0,0.39994959,-0.27684144,-2.1049813)" gradientUnits="userSpaceOnUse" xlink:href="#linearGradient3721"/><filter id="filter3622" width="1.067" height="1.355" x="-.034" y="-.177"><feGaussianBlur id="feGaussianBlur3624" stdDeviation=".526"/></filter><radialGradient id="radialGradient6241" cx="54.673" cy="6.85" r="1.289" fx="54.673" fy="6.85" gradientTransform="matrix(1,0,0,1.9019608,0,-6.1783597)" gradientUnits="userSpaceOnUse" xlink:href="#linearGradient3285"/><radialGradient id="radialGradient6239" cx="66.917" cy="121.709" r="36.032" fx="66.917" fy="121.709" gradientTransform="matrix(1,0,0,0.1111111,0,108.18546)" gradientUnits="userSpaceOnUse" xlink:href="#linearGradient5968"/><linearGradient id="linearGradient6201" x1="98.617" x2="91.229" y1="106.414" y2="99.255" gradientTransform="translate(30,0)" gradientUnits="userSpaceOnUse" xlink:href="#linearGradient10207"/><linearGradient id="linearGradient10207"><stop style="stop-color:#a2a2a2;stop-opacity:1" id="stop10209" offset="0"/><stop style="stop-color:#fff;stop-opacity:1" id="stop10211" offset="1"/></linearGradient><filter id="filter6697" width="1.384" height="1.384" x="-.192" y="-.192"><feGaussianBlur id="feGaussianBlur6699" stdDeviation="1.945"/></filter><filter id="filter6028" width="1.069" height="1.625" x="-.035" y="-.312"><feGaussianBlur id="feGaussianBlur6030" stdDeviation="1.042"/></filter><filter id="filter5505" width="1.226" height="1.133" x="-.113" y="-.067"><feGaussianBlur id="feGaussianBlur5507" stdDeviation=".133"/></filter><linearGradient id="linearGradient3285"><stop id="stop3287" offset="0" style="stop-color:#474747;stop-opacity:1"/><stop id="stop3289" offset="1" style="stop-color:#474747;stop-opacity:0"/></linearGradient><linearGradient id="linearGradient5968"><stop id="stop5970" offset="0" style="stop-color:#000;stop-opacity:1"/><stop id="stop5972" offset="1" style="stop-color:#000;stop-opacity:0"/></linearGradient><linearGradient id="linearGradient4254" x1="8.668" x2="52.936" y1="117.332" y2="73.064" gradientTransform="matrix(-1,0,0,-1,127,188.3984)" gradientUnits="userSpaceOnUse"><stop style="stop-color:#fac;stop-opacity:1" id="stop4256" offset="0"/><stop style="stop-color:#f59;stop-opacity:1" id="stop4258" offset=".509"/><stop style="stop-color:#800033;stop-opacity:1" id="stop4260" offset="1"/></linearGradient><linearGradient id="linearGradient6904" x1="8.668" x2="52.936" y1="117.332" y2="73.064" gradientTransform="matrix(-1,0,0,-1,127,188.3984)" gradientUnits="userSpaceOnUse" xlink:href="#linearGradient4254"/></defs><path style="fill:#000" id="path2186"/><path style="fill:#000" id="path2184"/><rect style="opacity:.57786889;fill:#fff;fill-opacity:1;fill-rule:nonzero;stroke:none" id="rect1327" width="1" height="0" x="213.615" y="-403.845"/><rect style="opacity:.57786889;fill:#fff;fill-opacity:1;fill-rule:nonzero;stroke:none" id="rect2543" width="1" height="0" x="360.836" y="-453.517"/><rect id="rect3367" width="1" height="0" x="563.376" y="-490.498" style="opacity:.57786889;fill:#fff;fill-opacity:1;fill-rule:nonzero;stroke:none"/><rect style="opacity:.38522429;fill:#000;fill-opacity:1;stroke:#312424;stroke-width:0;stroke-linecap:round;stroke-linejoin:round;stroke-miterlimit:4;stroke-opacity:1;stroke-dasharray:none;filter:url(#filter3622)" id="rect4287-6" width="37.663" height="7.118" x="5.156" y="38.479" ry="3.559" transform="matrix(1.0071017,0,0,0.96811257,-0.17035639,2.4144648)"/><path style="fill:#000" id="path2186-2"/><path style="fill:#000" id="path2184-6"/><rect style="opacity:.57786889;fill:#fff;fill-opacity:1;fill-rule:nonzero;stroke:none" id="rect1327-6" width="1" height="0" x="37.198" y="-491.455"/><rect style="opacity:.57786889;fill:#fff;fill-opacity:1;fill-rule:nonzero;stroke:none" id="rect2543-9" width="1" height="0" x="184.419" y="-541.128"/><rect id="rect3367-8" width="1" height="0" x="386.959" y="-578.109" style="opacity:.57786889;fill:#fff;fill-opacity:1;fill-rule:nonzero;stroke:none"/><rect style="fill:url(#linearGradient3727);fill-opacity:1;stroke:#000;stroke-width:1.65400147;stroke-linecap:round;stroke-linejoin:round;stroke-miterlimit:4;stroke-opacity:1;stroke-dasharray:none" id="rect2893" width="38.951" height="43.598" x="4.549" y="1.362" ry="7.76"/><path id="path1965" d="m 23.87168,8.1612267 c -0.801573,0.00688 -1.612254,0.078417 -2.399985,0.1978418 l -0.729421,5.2757575 c -0.739316,0.223069 -1.467964,0.516796 -2.16471,0.901271 -0.696731,0.384474 -1.316362,0.843699 -1.882345,1.34092 l -5.317642,-1.956418 c -0.487089,0.583174 -0.940419,1.204864 -1.341173,1.868493 -0.4032956,0.667797 -0.7283309,1.348801 -1.0117607,2.04435 l 4.5411687,3.253385 c -0.323546,1.417811 -0.313136,2.906356 0.04708,4.3525 l -4.4705785,3.319318 c 0.5959399,1.384352 1.4231245,2.692698 2.4470565,3.868891 l 5.294117,-2.02237 c 1.163474,0.974745 2.518277,1.68958 3.976457,2.110295 l 0.917653,5.297736 c 1.607061,0.210597 3.223552,0.195336 4.799999,-0.04396 l 0.729407,-5.27575 c 0.744193,-0.223494 1.463536,-0.536338 2.164711,-0.923264 0.701166,-0.386912 1.337149,-0.839884 1.905881,-1.34092 l 5.294116,1.978404 c 0.490692,-0.586334 0.9379,-1.200684 1.341181,-1.868486 0.400746,-0.663611 0.729341,-1.353305 1.011754,-2.044357 l -4.51763,-3.25338 c 0.323532,-1.417811 0.313129,-2.906368 -0.04708,-4.352499 l 4.447054,-3.34131 c -0.595843,-1.383359 -1.400255,-2.671461 -2.423523,-3.846904 l -5.247059,2.066335 c -1.20831,-1.028042 -2.635863,-1.775329 -4.164715,-2.198232 L 26.27171,8.3151029 c -0.803025,-0.1052176 -1.598433,-0.1607436 -2.4,-0.1538762 z m 0.164706,10.0459193 c 2.922262,0 5.294118,2.215897 5.294118,4.946018 0,2.730127 -2.371848,4.946017 -5.294118,4.946017 -2.922276,0 -5.294109,-2.21589 -5.294109,-4.946017 -6e-6,-2.730121 2.37184,-4.946018 5.294109,-4.946018 z" style="fill:#666;fill-opacity:1;fill-rule:nonzero;stroke:none"/><path style="opacity:.69366198;fill:url(#linearGradient3692);fill-opacity:1;stroke:#312424;stroke-width:0;stroke-linecap:round;stroke-linejoin:round;stroke-miterlimit:4;stroke-opacity:1;stroke-dasharray:none" id="rect3665" d="m 11.86004,1.4199272 c -4.0795322,0 -7.3651066,3.4624176 -7.3651066,7.7615214 l 0,14.4481804 c 8.0597996,-5.231943 21.5176586,-8.661408 36.7543696,-8.661408 0.77433,0 1.54802,0.0075 2.312712,0.02501 l 0,-5.8117692 c 0,-4.2991042 -3.285577,-7.7615219 -7.365103,-7.7615219 l -24.336872,0 z"/><rect id="rect1327-0" width="1" height="0" x="-515.106" y="-547.82" style="opacity:.57786889;fill:#fff;fill-opacity:1;fill-rule:nonzero;stroke:none"/><rect id="rect2482" width="1" height="0" x="-550.232" y="-575.348" style="opacity:.57786889;fill:#fff;fill-opacity:1;fill-rule:nonzero;stroke:none"/><rect id="rect6937" width="1" height="0" x="-374.681" y="-391.032" style="opacity:.57786889;fill:#fff;fill-opacity:1;fill-rule:nonzero;stroke:none"/><rect id="rect6939" width="1" height="0" x="-409.807" y="-418.559" style="opacity:.57786889;fill:#fff;fill-opacity:1;fill-rule:nonzero;stroke:none"/><rect id="rect7573" width="1" height="0" x="-424.181" y="-443.032" style="opacity:.57786889;fill:#fff;fill-opacity:1;fill-rule:nonzero;stroke:none"/><rect id="rect7575" width="1" height="0" x="-459.307" y="-470.559" style="opacity:.57786889;fill:#fff;fill-opacity:1;fill-rule:nonzero;stroke:none"/><rect id="rect8408" width="1" height="0" x="-811.431" y="-319.282" style="opacity:.57786889;fill:#fff;fill-opacity:1;fill-rule:nonzero;stroke:none"/><rect id="rect8410" width="1" height="0" x="-846.557" y="-346.809" style="opacity:.57786889;fill:#fff;fill-opacity:1;fill-rule:nonzero;stroke:none"/><rect id="rect9118" width="1" height="0" x="-559.038" y="-142.89" style="opacity:.57786889;fill:#fff;fill-opacity:1;fill-rule:nonzero;stroke:none"/><rect id="rect9120" width="1" height="0" x="-594.165" y="-170.417" style="opacity:.57786889;fill:#fff;fill-opacity:1;fill-rule:nonzero;stroke:none"/><rect id="rect3647" width="1" height="0" x="-659.688" y="-376.453" style="opacity:.57786889;fill:#fff;fill-opacity:1;fill-rule:nonzero;stroke:none"/><rect id="rect3649" width="1" height="0" x="-694.815" y="-403.981" style="opacity:.57786889;fill:#fff;fill-opacity:1;fill-rule:nonzero;stroke:none"/><rect id="rect10475" width="1" height="0" x="-657.681" y="-377.378" style="opacity:.57786889;fill:#fff;fill-opacity:1;fill-rule:nonzero;stroke:none"/><rect id="rect10477" width="1" height="0" x="-692.807" y="-404.906" style="opacity:.57786889;fill:#fff;fill-opacity:1;fill-rule:nonzero;stroke:none"/><rect style="opacity:.57786889;fill:#fff;fill-opacity:1;fill-rule:nonzero;stroke:none" id="rect6193" width="1" height="0" x="-555.419" y="-93.343"/><rect style="opacity:.57786889;fill:#fff;fill-opacity:1;fill-rule:nonzero;stroke:none" id="rect2732" width="1" height="0" x="-565.883" y="-110.221"/><rect style="opacity:.57786889;fill:#fff;fill-opacity:1;fill-rule:nonzero;stroke:none" id="rect6209" width="1" height="0" x="-601.01" y="-137.749"/></svg>