<svg xmlns="http://www.w3.org/2000/svg" xmlns:cc="http://web.resource.org/cc/" xmlns:svg="http://www.w3.org/2000/svg" xmlns:xlink="http://www.w3.org/1999/xlink" id="svg2583" width="142.191" height="175.832" version="1.0"><defs id="defs2585"><linearGradient id="linearGradient3441"><stop style="stop-color:#fff3f3;stop-opacity:1" id="stop3443" offset="0"/><stop style="stop-color:#fff3f3;stop-opacity:0" id="stop3445" offset="1"/></linearGradient><linearGradient id="linearGradient2859" x1="212.673" x2="233.345" y1="184.405" y2="184.405" gradientTransform="matrix(0.758824, 0, 0, 0.810187, -142.233, 14.8646)" gradientUnits="userSpaceOnUse" xlink:href="#linearGradient3441"/><filter id="filter3413"><feGaussianBlur id="feGaussianBlur3415" stdDeviation="1.874"/></filter><clipPath id="clipPath4315" clipPathUnits="userSpaceOnUse"><path style="opacity:1;fill:#333;fill-opacity:1;fill-rule:nonzero;stroke:none;stroke-width:1;stroke-linecap:butt;stroke-linejoin:round;stroke-miterlimit:4;stroke-dasharray:none;stroke-dashoffset:0;stroke-opacity:1" id="path4317" d="M 333.0473 281.96933 A 93.69165 93.69165 0 1 1 145.664,281.96933 A 93.69165 93.69165 0 1 1 333.0473 281.96933 z" transform="translate(-2)"/></clipPath><linearGradient id="linearGradient4297"><stop style="stop-color:#fff;stop-opacity:1" id="stop4299" offset="0"/><stop style="stop-color:#fff;stop-opacity:0" id="stop4301" offset="1"/></linearGradient><linearGradient id="linearGradient2730" x1="193.164" x2="236.547" y1="200.469" y2="262.969" gradientUnits="userSpaceOnUse" xlink:href="#linearGradient4297"/><linearGradient id="linearGradient3431"><stop style="stop-color:#fff;stop-opacity:1" id="stop3433" offset="0"/><stop style="stop-color:#fff;stop-opacity:0" id="stop3435" offset="1"/></linearGradient><linearGradient id="linearGradient2852" x1="208.584" x2="232.461" y1="158.872" y2="174.251" gradientTransform="matrix(0.758824, 0, 0, 0.758824, -142.233, 23.8619)" gradientUnits="userSpaceOnUse" xlink:href="#linearGradient3431"/><linearGradient id="linearGradient4374"><stop style="stop-color:#000;stop-opacity:1" id="stop4376" offset="0"/><stop style="stop-color:#000;stop-opacity:0" id="stop4378" offset="1"/></linearGradient><linearGradient id="linearGradient2734" x1="286.72" x2="232.491" y1="341.469" y2="251.969" gradientUnits="userSpaceOnUse" xlink:href="#linearGradient4374"/><filter id="filter4332"><feGaussianBlur id="feGaussianBlur4334" stdDeviation="2.464"/></filter><linearGradient id="linearGradient4324"><stop style="stop-color:#fff;stop-opacity:1" id="stop4326" offset="0"/><stop style="stop-color:#fff;stop-opacity:0" id="stop4328" offset="1"/></linearGradient><linearGradient id="linearGradient2736" x1="302.72" x2="244.034" y1="353.969" y2="295.283" gradientUnits="userSpaceOnUse" xlink:href="#linearGradient4324"/><linearGradient id="linearGradient2864" x1="286.296" x2="220.467" y1="238.838" y2="238.838" gradientUnits="userSpaceOnUse" xlink:href="#linearGradient4177"/><linearGradient id="linearGradient2866" x1="286.296" x2="220.467" y1="238.838" y2="238.838" gradientUnits="userSpaceOnUse" xlink:href="#linearGradient4177"/><linearGradient id="linearGradient4177"><stop style="stop-color:#a00;stop-opacity:1" id="stop4179" offset="0"/><stop style="stop-color:#a00;stop-opacity:0" id="stop4181" offset="1"/></linearGradient><linearGradient id="linearGradient2868" x1="286.296" x2="220.467" y1="238.838" y2="238.838" gradientUnits="userSpaceOnUse" xlink:href="#linearGradient4177"/><linearGradient id="linearGradient4025"><stop style="stop-color:#fff;stop-opacity:1" id="stop4027" offset="0"/><stop style="stop-color:#fff;stop-opacity:0" id="stop4029" offset="1"/></linearGradient><linearGradient id="linearGradient2827" x1="246.059" x2="246.059" y1="210.537" y2="306.826" gradientTransform="matrix(0.721309, 0, 0, 0.721309, -133.253, 33.9771)" gradientUnits="userSpaceOnUse" xlink:href="#linearGradient4025"/><linearGradient id="linearGradient3464"><stop style="stop-color:#fff;stop-opacity:1" id="stop3466" offset="0"/><stop style="stop-color:#fff;stop-opacity:0" id="stop3468" offset="1"/></linearGradient><linearGradient id="linearGradient2824" x1="652.998" x2="674.407" y1="183.373" y2="200.498" gradientTransform="matrix(0.758824, 0, 0, 0.758824, -423.395, 23.8619)" gradientUnits="userSpaceOnUse" xlink:href="#linearGradient3464"/><linearGradient id="linearGradient3057" x1="212.673" x2="233.345" y1="184.405" y2="184.405" gradientTransform="matrix(0.758824, 0, 0, 0.810187, -142.233, 14.8646)" gradientUnits="userSpaceOnUse" xlink:href="#linearGradient3441"/><linearGradient id="linearGradient3059" x1="193.164" x2="236.547" y1="200.469" y2="262.969" gradientUnits="userSpaceOnUse" xlink:href="#linearGradient4297"/><linearGradient id="linearGradient3061" x1="208.584" x2="232.461" y1="158.872" y2="174.251" gradientTransform="matrix(0.758824, 0, 0, 0.758824, -142.233, 23.8619)" gradientUnits="userSpaceOnUse" xlink:href="#linearGradient3431"/><linearGradient id="linearGradient3063" x1="286.72" x2="232.491" y1="341.469" y2="251.969" gradientUnits="userSpaceOnUse" xlink:href="#linearGradient4374"/><linearGradient id="linearGradient3065" x1="302.72" x2="244.034" y1="353.969" y2="295.283" gradientUnits="userSpaceOnUse" xlink:href="#linearGradient4324"/><linearGradient id="linearGradient3067" x1="286.296" x2="220.467" y1="238.838" y2="238.838" gradientUnits="userSpaceOnUse" xlink:href="#linearGradient4177"/><linearGradient id="linearGradient3069" x1="286.296" x2="220.467" y1="238.838" y2="238.838" gradientUnits="userSpaceOnUse" xlink:href="#linearGradient4177"/><linearGradient id="linearGradient3071" x1="286.296" x2="220.467" y1="238.838" y2="238.838" gradientUnits="userSpaceOnUse" xlink:href="#linearGradient4177"/><linearGradient id="linearGradient3073" x1="246.059" x2="246.059" y1="210.537" y2="306.826" gradientTransform="matrix(0.721309, 0, 0, 0.721309, -133.253, 33.9771)" gradientUnits="userSpaceOnUse" xlink:href="#linearGradient4025"/><linearGradient id="linearGradient3075" x1="652.998" x2="674.407" y1="183.373" y2="200.498" gradientTransform="matrix(0.758824, 0, 0, 0.758824, -423.395, 23.8619)" gradientUnits="userSpaceOnUse" xlink:href="#linearGradient3464"/></defs><metadata id="metadata2588"/><g id="layer1" transform="translate(-23.8589, 8.33048)"><g id="g3025" transform="translate(55.5584, -141.421)"><rect style="fill:#333;fill-opacity:1;fill-rule:nonzero;stroke:none;stroke-width:1;stroke-linecap:butt;stroke-linejoin:round;stroke-miterlimit:4;stroke-dasharray:none;stroke-dashoffset:0;stroke-opacity:1" id="rect2666" width="16.349" height="14.013" x="31.222" y="156.786" rx="2.683" ry="2.683"/><rect style="fill:url(#linearGradient3057) #000;fill-opacity:1;fill-rule:nonzero;stroke:none;stroke-width:1;stroke-linecap:butt;stroke-linejoin:round;stroke-miterlimit:4;stroke-dasharray:none;stroke-dashoffset:0;stroke-opacity:1" id="rect2668" width="16.349" height="14.962" x="31.222" y="156.786" rx="2.683" ry="2.864"/><rect style="fill:#333;fill-opacity:1;fill-rule:nonzero;stroke:none;stroke-width:1;stroke-linecap:butt;stroke-linejoin:round;stroke-miterlimit:4;stroke-dasharray:none;stroke-dashoffset:0;stroke-opacity:1" id="rect2670" width="24.757" height="13.561" x="27.017" y="147.429" rx="6.781" ry="6.781"/><path style="fill:#333;fill-opacity:1;fill-rule:nonzero;stroke:none;stroke-width:1;stroke-linecap:butt;stroke-linejoin:round;stroke-miterlimit:4;stroke-dasharray:none;stroke-dashoffset:0;stroke-opacity:1" id="path2672" d="M 333.0473 281.96933 A 93.69165 93.69165 0 1 1 145.664,281.96933 A 93.69165 93.69165 0 1 1 333.0473 281.96933 z" transform="matrix(0.758824, 0, 0, 0.758824, -142.233, 23.8619)"/><path style="opacity:.783333;fill:none;fill-opacity:1;fill-rule:nonzero;stroke:url(#linearGradient3059) #000;stroke-width:3.35839;stroke-linecap:butt;stroke-linejoin:round;stroke-miterlimit:4;stroke-dasharray:none;stroke-dashoffset:0;stroke-opacity:1;filter:url(#filter3413)" id="path2674" d="M 333.0473 281.96933 A 93.69165 93.69165 0 1 1 145.664,281.96933 A 93.69165 93.69165 0 1 1 333.0473 281.96933 z" clip-path="url(#clipPath4315)" transform="matrix(0.758824, 0, 0, 0.758824, -140.715, 23.8619)"/><rect style="fill:none;fill-opacity:1;fill-rule:nonzero;stroke:#333;stroke-width:2.54843;stroke-linecap:butt;stroke-linejoin:round;stroke-miterlimit:4;stroke-dasharray:none;stroke-dashoffset:0;stroke-opacity:1" id="rect2676" width="36.435" height="18.684" x="21.723" y="134.365" rx="14.247" ry="8.875"/><rect style="fill:url(#linearGradient3061) #000;fill-opacity:1;fill-rule:nonzero;stroke:none;stroke-width:1;stroke-linecap:butt;stroke-linejoin:round;stroke-miterlimit:4;stroke-dasharray:none;stroke-dashoffset:0;stroke-opacity:1" id="rect2678" width="24.757" height="13.561" x="27.017" y="147.429" rx="6.781" ry="6.781"/><path style="fill:#c8c4b7;fill-opacity:1;fill-rule:nonzero;stroke:none;stroke-width:1;stroke-linecap:butt;stroke-linejoin:round;stroke-miterlimit:4;stroke-dasharray:none;stroke-dashoffset:0;stroke-opacity:1" id="path2680" d="M 317.49095 281.96933 A 78.1353 78.1353 0 1 1 161.22035,281.96933 A 78.1353 78.1353 0 1 1 317.49095 281.96933 z" transform="matrix(0.758824, 0, 0, 0.758824, -142.233, 23.8619)"/><path style="opacity:.622222;fill:url(#linearGradient3063) #000;fill-opacity:1;fill-rule:nonzero;stroke:none;stroke-width:1;stroke-linecap:butt;stroke-linejoin:round;stroke-miterlimit:4;stroke-dasharray:none;stroke-dashoffset:0;stroke-opacity:1" id="path2682" d="M 317.49095 281.96933 A 78.1353 78.1353 0 1 1 161.22035,281.96933 A 78.1353 78.1353 0 1 1 317.49095 281.96933 z" transform="matrix(0.758824, 0, 0, 0.758824, -142.233, 23.8619)"/><path style="fill:none;fill-opacity:1;fill-rule:nonzero;stroke:url(#linearGradient3065) #000;stroke-width:2.5188;stroke-linecap:butt;stroke-linejoin:round;stroke-miterlimit:4;stroke-dasharray:none;stroke-dashoffset:0;stroke-opacity:1;filter:url(#filter4332)" id="path2684" d="M 319.49095 281.96933 A 80.1353 80.1353 0 1 1 159.22035,281.96933 A 80.1353 80.1353 0 1 1 319.49095 281.96933 z" transform="matrix(0.758824, 0, 0, 0.758824, -142.233, 23.8619)"/><rect style="fill:#1a1a1a;fill-opacity:1;fill-rule:nonzero;stroke:none;stroke-width:1;stroke-linecap:butt;stroke-linejoin:round;stroke-miterlimit:4;stroke-dasharray:none;stroke-dashoffset:0;stroke-opacity:1" id="rect2686" width="6.975" height="13.951" x="35.908" y="182.426" rx="2.683" ry="2.683"/><rect style="fill:#4d4d4d;fill-opacity:1;fill-rule:nonzero;stroke:none;stroke-width:1;stroke-linecap:butt;stroke-linejoin:round;stroke-miterlimit:4;stroke-dasharray:none;stroke-dashoffset:0;stroke-opacity:1" id="use2688" width="6.975" height="13.951" x="35.908" y="277.936" rx="2.683" ry="2.683"/><rect style="fill:#4d4d4d;fill-opacity:1;fill-rule:nonzero;stroke:none;stroke-width:1;stroke-linecap:butt;stroke-linejoin:round;stroke-miterlimit:4;stroke-dasharray:none;stroke-dashoffset:0;stroke-opacity:1" id="use2690" width="6.975" height="13.951" x="-241.315" y="-15.871" rx="2.683" ry="2.683" transform="matrix(0, -1, 1, 0, 0, 0)"/><rect style="fill:#4d4d4d;fill-opacity:1;fill-rule:nonzero;stroke:none;stroke-width:1;stroke-linecap:butt;stroke-linejoin:round;stroke-miterlimit:4;stroke-dasharray:none;stroke-dashoffset:0;stroke-opacity:1" id="use2692" width="6.975" height="13.951" x="-241.315" y="78.029" rx="2.683" ry="2.683" transform="matrix(0, -1, 1, 0, 0, 0)"/><path style="fill:#000;fill-opacity:1;fill-rule:nonzero;stroke:none;stroke-width:1;stroke-linecap:butt;stroke-linejoin:round;stroke-miterlimit:4;stroke-dasharray:none;stroke-dashoffset:0;stroke-opacity:1" id="path2694" d="M 249.60869 284.44421 A 9.1923885 9.1923885 0 1 1 231.22392,284.44421 A 9.1923885 9.1923885 0 1 1 249.60869 284.44421 z" transform="matrix(0.198478, 0, 0, 0.198478, -8.32136, 181.371)"/><rect style="fill:#4d4d4d;fill-opacity:1;fill-rule:nonzero;stroke:none;stroke-width:1;stroke-linecap:butt;stroke-linejoin:round;stroke-miterlimit:4;stroke-dasharray:none;stroke-dashoffset:0;stroke-opacity:1" id="use2696" width="2.043" height="6.078" x="151.659" y="134.678" rx=".786" ry="1.169" transform="matrix(0.866025, 0.5, -0.5, 0.866026, 0, 0)"/><rect style="fill:#4d4d4d;fill-opacity:1;fill-rule:nonzero;stroke:none;stroke-width:1;stroke-linecap:butt;stroke-linejoin:round;stroke-miterlimit:4;stroke-dasharray:none;stroke-dashoffset:0;stroke-opacity:1" id="use2698" width="2.043" height="6.078" x="224" y="34.015" rx=".786" ry="1.169" transform="matrix(0.5, 0.866025, -0.866026, 0.5, 0, 0)"/><rect style="fill:#4d4d4d;fill-opacity:1;fill-rule:nonzero;stroke:none;stroke-width:1;stroke-linecap:butt;stroke-linejoin:round;stroke-miterlimit:4;stroke-dasharray:none;stroke-dashoffset:0;stroke-opacity:1" id="use2700" width="2.043" height="6.078" x="-85.481" y="-276.061" rx=".786" ry="1.169" transform="matrix(0.866025, -0.5, -0.5, -0.866026, 0, 0)"/><rect style="fill:#4d4d4d;fill-opacity:1;fill-rule:nonzero;stroke:none;stroke-width:1;stroke-linecap:butt;stroke-linejoin:round;stroke-miterlimit:4;stroke-dasharray:none;stroke-dashoffset:0;stroke-opacity:1" id="use2702" width="2.043" height="6.078" x="-186.738" y="-203.125" rx=".786" ry="1.169" transform="matrix(0.5, -0.866025, -0.866026, -0.5, 0, 0)"/><rect style="fill:#4d4d4d;fill-opacity:1;fill-rule:nonzero;stroke:none;stroke-width:1;stroke-linecap:butt;stroke-linejoin:round;stroke-miterlimit:4;stroke-dasharray:none;stroke-dashoffset:0;stroke-opacity:1" id="use2704" width="2.043" height="6.078" x="-153.764" y="-236.638" rx=".786" ry="1.169" transform="matrix(-0.866025, -0.5, 0.5, -0.866026, 0, 0)"/><rect style="fill:#4d4d4d;fill-opacity:1;fill-rule:nonzero;stroke:none;stroke-width:1;stroke-linecap:butt;stroke-linejoin:round;stroke-miterlimit:4;stroke-dasharray:none;stroke-dashoffset:0;stroke-opacity:1" id="use2706" width="2.043" height="6.078" x="-226.161" y="-134.843" rx=".786" ry="1.169" transform="matrix(-0.5, -0.866025, 0.866026, -0.5, 0, 0)"/><rect style="fill:#4d4d4d;fill-opacity:1;fill-rule:nonzero;stroke:none;stroke-width:1;stroke-linecap:butt;stroke-linejoin:round;stroke-miterlimit:4;stroke-dasharray:none;stroke-dashoffset:0;stroke-opacity:1" id="use2708" width="2.043" height="6.078" x="83.541" y="174.386" rx=".786" ry="1.169" transform="matrix(-0.866025, 0.5, 0.5, 0.866026, 0, 0)"/><rect style="fill:#4d4d4d;fill-opacity:1;fill-rule:nonzero;stroke:none;stroke-width:1;stroke-linecap:butt;stroke-linejoin:round;stroke-miterlimit:4;stroke-dasharray:none;stroke-dashoffset:0;stroke-opacity:1" id="use2710" width="2.043" height="6.078" x="184.863" y="102.462" rx=".786" ry="1.169" transform="matrix(-0.5, 0.866025, 0.866026, 0.5, 0, 0)"/><rect style="fill:#000;fill-opacity:1;fill-rule:nonzero;stroke:none;stroke-width:4;stroke-linecap:butt;stroke-linejoin:round;stroke-miterlimit:4;stroke-dasharray:none;stroke-dashoffset:0;stroke-opacity:1" id="rect2712" width="1.868" height="51.406" x="207.78" y="69.226" rx=".934" ry="25.703" transform="matrix(0.635214, 0.772336, -0.772336, 0.635214, 0, 0)"/><path id="path2716" d="M 230.99355,204.28278 A 78.1353,78.1353 0 0 1 293.39423,225.53391" transform="matrix(0.491753, 0, 0, 0.491753, -78.3079, 99.1677)" style="fill:none;fill-opacity:1;fill-rule:nonzero;stroke:url(#linearGradient3067) #000;stroke-width:3.88675;stroke-linecap:round;stroke-linejoin:round;stroke-miterlimit:4;stroke-dasharray:none;stroke-dashoffset:0;stroke-opacity:1"/><path id="path2718" d="M 247.54253,218.63464 A 63.861629,63.861629 0 0 1 281.73214,234.19339" transform="matrix(0.491753, 0, 0, 0.491753, -78.3079, 99.1677)" style="fill:none;fill-opacity:1;fill-rule:nonzero;stroke:url(#linearGradient3069) #000;stroke-width:3.88675;stroke-linecap:round;stroke-linejoin:round;stroke-miterlimit:4;stroke-dasharray:none;stroke-dashoffset:0;stroke-opacity:1"/><path id="path2720" d="M 213.17088,194.15262 A 91.637421,91.637421 0 0 1 303.81683,216.83736" transform="matrix(0.491753, 0, 0, 0.491753, -78.3079, 99.1677)" style="fill:none;fill-opacity:1;fill-rule:nonzero;stroke:url(#linearGradient3071) #000;stroke-width:3.88675;stroke-linecap:round;stroke-linejoin:round;stroke-miterlimit:4;stroke-dasharray:none;stroke-dashoffset:0;stroke-opacity:1"/><path style="fill:#333;fill-rule:evenodd;stroke:none;stroke-width:1px;stroke-linecap:butt;stroke-linejoin:miter;stroke-opacity:1" id="path2722" d="M 81.549197,173.07271 L 79.893457,181.31095 C 82.169927,185.29478 89.283417,188.55464 89.283417,188.55464 L 96.827937,185.53446 C 96.827937,180.83948 85.573467,171.73128 81.549197,173.07271 z"/><path style="opacity:.522222;fill:url(#linearGradient3073) #000;fill-opacity:1;fill-rule:nonzero;stroke:none;stroke-width:1;stroke-linecap:butt;stroke-linejoin:round;stroke-miterlimit:4;stroke-dashoffset:0;stroke-opacity:1" id="path2724" d="M 95.755627,237.36408 C 95.755627,268.47463 52.984137,243.10575 39.395957,243.10575 C 26.251247,243.10575 -16.963713,268.47463 -16.963713,237.36408 C -16.963713,206.25354 8.2854266,181.00441 39.395957,181.00441 C 70.506497,181.00441 95.755627,206.25354 95.755627,237.36408 z"/><path style="fill:url(#linearGradient3075) #000;fill-opacity:1;fill-rule:evenodd;stroke:none;stroke-width:1px;stroke-linecap:butt;stroke-linejoin:miter;stroke-opacity:1" id="path2726" d="M 81.549197,173.07271 L 79.893457,181.31095 C 82.169927,185.29478 89.283417,188.55464 89.283417,188.55464 L 96.827937,185.53446 C 96.827937,180.83948 85.573467,171.73128 81.549197,173.07271 z"/></g></g></svg>