<svg xmlns="http://www.w3.org/2000/svg" xmlns:cc="http://web.resource.org/cc/" xmlns:svg="http://www.w3.org/2000/svg" xmlns:xlink="http://www.w3.org/1999/xlink" id="svg3236" width="56.479" height="37.091" version="1.0"><defs id="defs3238"><linearGradient id="linearGradient6173"><stop style="stop-color:red;stop-opacity:1" id="stop6175" offset="0"/><stop id="stop6181" offset=".5" style="stop-color:#4bff00;stop-opacity:1"/><stop style="stop-color:#f6ff00;stop-opacity:1" id="stop6183" offset=".75"/><stop id="stop6185" offset=".875" style="stop-color:#ff00e8;stop-opacity:1"/><stop style="stop-color:#000fff;stop-opacity:1" id="stop6177" offset="1"/></linearGradient><linearGradient id="linearGradient6179" x1="344.5" x2="370.693" y1="530.356" y2="530.356" gradientTransform="matrix(0.866025, -0.5, 0.5, 0.866025, -216.005, 243.296)" gradientUnits="userSpaceOnUse" xlink:href="#linearGradient6173"/></defs><metadata id="metadata3241"/><g id="layer1" transform="translate(-340.94, -499.536)"><path style="fill:url(#linearGradient6179) #000;fill-opacity:1;fill-rule:evenodd;stroke:none;stroke-width:1px;stroke-linecap:butt;stroke-linejoin:miter;stroke-opacity:1" id="path5202" d="M 370.605,519.33567 C 368.59366,518.44842 364.85741,516.88054 363.77488,517.50554 C 362.69235,518.13054 369.06494,521.6682 366.27488,521.83567 C 363.48481,522.00314 354.77969,516.92542 352.61462,518.17542 C 350.44956,519.42542 360.40469,526.6682 357.61462,526.83567 C 354.82456,527.00314 343.53015,517.44064 341.45437,518.84529 C 339.37859,520.24994 343.90061,528.07628 349.31151,532.45427 C 354.72242,536.83225 361.68221,536.98155 363.09799,536.35725 C 364.51377,535.73295 355.56309,531.2493 354.97462,529.95705 C 354.38614,528.6648 359.25924,532.41539 360.74408,531.18823 C 362.22893,529.96108 359.56796,525.9351 360.914,525.04845 C 362.26004,524.16181 364.74147,527.88223 366.12826,527.64166 C 367.51504,527.40108 365.40065,524.87802 366.46114,524.08613 C 367.52164,523.29424 369.03045,525.23201 370.37023,524.4741 C 371.71001,523.71618 371.76157,522.33912 371.82025,521.05451 C 371.87894,519.7699 372.61634,520.22291 370.605,519.33567 z"/><g id="g5194" transform="matrix(0.707107, 0.707107, -0.707107, 0.707107, 486.636, -112.93)"><path id="path3244" d="M 365,521.36218 C 368,526.36218 364.99738,531.36748 365,531.36218 C 365.02413,531.31358 375,526.36218 375,521.36218 C 375,516.36218 372.5,516.36218 370,516.36218 C 367.5,516.36218 362.42752,517.07471 365,521.36218 z" style="fill:#204a87;fill-rule:evenodd;stroke:#000;stroke-width:1px;stroke-linecap:butt;stroke-linejoin:miter;stroke-opacity:1"/><path id="path3248" d="M 365,512.63004 C 366.25,516.38004 373.75,516.17914 375,512.36218 C 376.25,508.54521 372.46169,497.29713 369.96169,497.36409 C 367.46169,497.43106 363.75,508.88004 365,512.63004 z" style="fill:#8f5902;fill-rule:evenodd;stroke:#000;stroke-width:1px;stroke-linecap:butt;stroke-linejoin:miter;stroke-opacity:1"/><path id="path3246" d="M 365,517.36218 L 375,517.36218 L 375,512.36218 L 365,512.36218 L 365,517.36218 z" style="fill:#babdb6;fill-rule:evenodd;stroke:#000;stroke-width:1px;stroke-linecap:butt;stroke-linejoin:miter;stroke-opacity:1"/><path id="path3250" d="M 371,499.36218 C 372,499.36218 374,509.36218 374,510.36218 C 374,511.36218 370,511.36218 370,510.36218 C 370,509.36218 370,499.36218 371,499.36218 z" style="fill:#c17d11;fill-rule:evenodd;stroke:none;stroke-width:1px;stroke-linecap:butt;stroke-linejoin:miter;stroke-opacity:1"/><path id="path4221" d="M 370.23061,519.4437 C 370.22547,518.44228 373.24568,518.37977 373.23061,519.4437 C 373.18903,522.37952 369.9318,526.36218 369.1818,526.36218 C 368.4318,526.36218 370.24568,522.37977 370.23061,519.4437 z" style="fill:#729fcf;fill-rule:evenodd;stroke:none;stroke-width:1px;stroke-linecap:butt;stroke-linejoin:miter;stroke-opacity:1"/><path id="path5192" d="M 374,513.36218 L 372,513.36218 L 372,516.36218 L 374,516.36218 L 374,513.36218 z" style="fill:#eeeeec;fill-rule:evenodd;stroke:none;stroke-width:1px;stroke-linecap:butt;stroke-linejoin:miter;stroke-opacity:1"/></g></g></svg>