<svg xmlns="http://www.w3.org/2000/svg" xmlns:xlink="http://www.w3.org/1999/xlink" id="svg1" width="533.333" height="533.333"><defs id="defs3"><linearGradient id="linearGradient1085"><stop style="stop-color:#060;stop-opacity:1" id="stop1086" offset="0"/><stop style="stop-color:#0f0;stop-opacity:1" id="stop1087" offset="1"/></linearGradient><radialGradient id="radialGradient1088" cx="1.8" cy="-.034" r="2.137" fx="1.8" fy="-.034" xlink:href="#linearGradient1085"/><radialGradient id="radialGradient1089" cx="-1.854" cy="-.028" r="2.137" fx="-1.854" fy="-.028" xlink:href="#linearGradient1085"/><radialGradient id="radialGradient1090" cx="-.341" cy="-1.884" r="2.137" fx="-.341" fy="-1.884" gradientTransform="scale(0.751916, 1.32993)" xlink:href="#linearGradient1085"/><radialGradient id="radialGradient1091" cx="-.339" cy=".863" r="2.137" fx="-.339" fy=".863" gradientTransform="scale(0.751916, 1.32993)" xlink:href="#linearGradient1085"/><radialGradient id="radialGradient1092" cx=".861" cy="-.023" r="2.137" fx=".861" fy="-.023" xlink:href="#linearGradient1085"/><radialGradient id="radialGradient1093" cx="-2.793" cy="-.032" r="2.137" fx="-2.793" fy="-.032" xlink:href="#linearGradient1085"/><radialGradient id="radialGradient1094" cx="-.341" cy="-1.175" r="2.137" fx="-.341" fy="-1.175" gradientTransform="scale(0.751916, 1.32993)" xlink:href="#linearGradient1085"/><radialGradient id="radialGradient1095" cx="-.336" cy="1.569" r="2.137" fx="-.336" fy="1.569" gradientTransform="scale(0.751916, 1.32993)" xlink:href="#linearGradient1085"/><radialGradient id="radialGradient1096" cx=".265" cy=".268" r=".665" fx=".265" fy=".268" gradientTransform="scale(0.867801, 1.15234)" xlink:href="#linearGradient1085"/></defs><g id="g842"><path style="fill-opacity:.5;fill-rule:evenodd;stroke-width:2.868pt" id="path1412" d="M 125.60166,127.78915 C 125.60166,127.78915 125.72666,224.72666 125.72666,224.72665 C 125.72666,224.72665 126.80583,247.41268 146.32041,243.63290 C 162.17601,240.56182 156.55317,218.75486 169.00791,217.78915 C 171.88208,217.56629 175.72271,218.46491 181.00791,220.94540 C 191.91711,230.04052 197.01087,247.08971 197.57041,262.28915 C 197.77697,267.90010 197.28711,273.17709 196.32041,277.78915 C 196.29560,277.99384 196.25312,278.20932 196.22666,278.41415 C 194.53275,291.52856 189.46486,304.83195 180.25791,312.50790 C 152.07017,325.73717 165.08500,293.60018 145.57041,289.82040 C 131.35221,287.06647 126.95996,298.29874 125.60166,304.63290 L 125.60166,407.53915 L 227.19541,407.53915 C 233.39663,408.75741 245.43650,413.02822 242.60166,427.66415 C 238.82187,447.17875 206.71614,434.16391 219.94541,462.35165 C 227.62135,471.55861 240.92475,476.62649 254.03916,478.32040 C 254.24398,478.34687 254.45947,478.38934 254.66416,478.41415 C 259.27620,479.38086 264.55321,479.87071 270.16416,479.66415 C 285.36360,479.10462 302.41279,474.01085 311.50791,463.10165 C 324.73717,434.91393 292.60020,447.92874 288.82041,428.41415 C 285.04061,408.89958 307.72666,407.82040 307.72666,407.82040 L 404.91416,407.53915 L 404.91416,305.44540 C 406.30057,299.09329 410.71689,287.98888 424.85166,290.72665 C 444.36624,294.50644 431.35142,326.64342 459.53916,313.41415 C 468.74610,305.73821 473.81400,292.40356 475.50791,279.28915 C 475.53436,279.08433 475.57685,278.90009 475.60166,278.69540 C 476.56835,274.08335 477.05822,268.80635 476.85166,263.19540 C 476.29211,247.99596 471.19836,230.94677 460.28916,221.85165 C 432.10142,208.62239 445.11625,240.75936 425.60166,244.53915 C 406.08707,248.31895 405.00791,225.63290 405.00791,225.63290 L 404.91416,127.78915 C 404.91416,127.78915 307.57041,128.50790 307.57041,128.50790 C 307.57041,128.50790 284.88436,129.58707 288.66416,149.10165 C 292.44395,168.61624 324.58092,155.60142 311.35166,183.78915 C 302.25654,194.69835 285.20735,199.79211 270.00791,200.35165 C 264.39696,200.55821 259.11995,200.06835 254.50791,199.10165 C 254.30322,199.07684 254.08773,199.03436 253.88291,199.00790 C 240.76850,197.31399 227.46510,192.24610 219.78916,183.03915 C 206.55989,154.85141 238.66562,167.86624 242.44541,148.35165 C 246.16555,129.14505 224.48092,127.82693 223.78916,127.78915 L 125.60166,127.78915 z"/><path style="fill:url(#radialGradient1096) #000;fill-opacity:1;fill-rule:evenodd;stroke:#000;stroke-width:12.5;stroke-dasharray:none;stroke-linejoin:round" id="path1202" d="M 108.62500,112.46875 C 108.62500,112.46875 108.75000,209.40626 108.75000,209.40625 C 108.75000,209.40625 109.82917,232.09228 129.34375,228.31250 C 145.19935,225.24142 139.57651,203.43446 152.03125,202.46875 C 154.90542,202.24589 158.74605,203.14451 164.03125,205.62500 C 174.94045,214.72012 180.03421,231.76931 180.59375,246.96875 C 180.80031,252.57970 180.31045,257.85669 179.34375,262.46875 C 179.31894,262.67344 179.27646,262.88892 179.25000,263.09375 C 177.55609,276.20816 172.48820,289.51155 163.28125,297.18750 C 135.09351,310.41677 148.10834,278.27978 128.59375,274.50000 C 114.37555,271.74607 109.98330,282.97834 108.62500,289.31250 L 108.62500,392.21875 L 210.21875,392.21875 C 216.41997,393.43701 228.45984,397.70782 225.62500,412.34375 C 221.84521,431.85835 189.73948,418.84351 202.96875,447.03125 C 210.64469,456.23821 223.94809,461.30609 237.06250,463.00000 C 237.26732,463.02647 237.48281,463.06894 237.68750,463.09375 C 242.29954,464.06046 247.57655,464.55031 253.18750,464.34375 C 268.38694,463.78422 285.43613,458.69045 294.53125,447.78125 C 307.76051,419.59353 275.62354,432.60834 271.84375,413.09375 C 268.06395,393.57918 290.75000,392.50000 290.75000,392.50000 L 387.93750,392.21875 L 387.93750,290.12500 C 389.32391,283.77289 393.74023,272.66848 407.87500,275.40625 C 427.38958,279.18604 414.37476,311.32302 442.56250,298.09375 C 451.76944,290.41781 456.83734,277.08316 458.53125,263.96875 C 458.55770,263.76393 458.60019,263.57969 458.62500,263.37500 C 459.59169,258.76295 460.08156,253.48595 459.87500,247.87500 C 459.31545,232.67556 454.22170,215.62637 443.31250,206.53125 C 415.12476,193.30199 428.13959,225.43896 408.62500,229.21875 C 389.11041,232.99855 388.03125,210.31250 388.03125,210.31250 L 387.93750,112.46875 C 387.93750,112.46875 290.59375,113.18750 290.59375,113.18750 C 290.59375,113.18750 267.90770,114.26667 271.68750,133.78125 C 275.46729,153.29584 307.60426,140.28102 294.37500,168.46875 C 285.27988,179.37795 268.23069,184.47171 253.03125,185.03125 C 247.42030,185.23781 242.14329,184.74795 237.53125,183.78125 C 237.32656,183.75644 237.11107,183.71396 236.90625,183.68750 C 223.79184,181.99359 210.48844,176.92570 202.81250,167.71875 C 189.58323,139.53101 221.68896,152.54584 225.46875,133.03125 C 229.18889,113.82465 207.50426,112.50653 206.81250,112.46875 L 108.62500,112.46875 z"/></g><rdf:RDF xmlns="http://web.resource.org/cc/" xmlns:dc="http://purl.org/dc/elements/1.1/" xmlns:rdf="http://www.w3.org/1999/02/22-rdf-syntax-ns#"><Work><dc:title>Clipart by Nicu Buculei - jigsaw_red_10</dc:title><dc:rights><Agent><dc:title>Nicu Buculei</dc:title></Agent></dc:rights><dc:type rdf:resource="http://purl.org/dc/dcmitype/StillImage"/><license rdf:resource="http://web.resource.org/cc/PublicDomain"/></Work><License rdf:about="http://web.resource.org/cc/PublicDomain"><permits rdf:resource="http://web.resource.org/cc/Reproduction"/><permits rdf:resource="http://web.resource.org/cc/Distribution"/><permits rdf:resource="http://web.resource.org/cc/DerivativeWorks"/></License></rdf:RDF></svg>